PathFileType	4	(X/Y/Z)	s09c0103.trc
DataRate	CameraRate	NumFrames	NumMarkers	Units	OrigDataRate	OrigDataStartFrame	OrigNumFrames
200	200	7	50	mm	200	1750	2000
Frame#	Time	racr			lacr			c7			jug			rlel			rdr			llel			ldr			s2			lic			ric			lasi			rasi			rpsi			lpsi			rgt			lgt			rth1			rth2			rth3			rth4			rlfc			rmfc			rsh1			rsh2			rsh3			rsh4			rlmal			rmmal			rcal			rtoe			rmt5			lth1			lth2			lth4			lth3			llfc			lmfc			llmal			lmmal			lcal			lmt5			lsh1			lsh2			lsh3			lsh4			ltoe			SBIKE			LBIKE			RBIKE			
		X1	Y1	Z1	X2	Y2	Z2	X3	Y3	Z3	X4	Y4	Z4	X5	Y5	Z5	X6	Y6	Z6	X7	Y7	Z7	X8	Y8	Z8	X9	Y9	Z9	X10	Y10	Z10	X11	Y11	Z11	X12	Y12	Z12	X13	Y13	Z13	X14	Y14	Z14	X15	Y15	Z15	X16	Y16	Z16	X17	Y17	Z17	X18	Y18	Z18	X19	Y19	Z19	X20	Y20	Z20	X21	Y21	Z21	X22	Y22	Z22	X23	Y23	Z23	X24	Y24	Z24	X25	Y25	Z25	X26	Y26	Z26	X27	Y27	Z27	X28	Y28	Z28	X29	Y29	Z29	X30	Y30	Z30	X31	Y31	Z31	X32	Y32	Z32	X33	Y33	Z33	X34	Y34	Z34	X35	Y35	Z35	X36	Y36	Z36	X37	Y37	Z37	X38	Y38	Z38	X39	Y39	Z39	X40	Y40	Z40	X41	Y41	Z41	X42	Y42	Z42	X43	Y43	Z43	X44	Y44	Z44	X45	Y45	Z45	X46	Y46	Z46	X47	Y47	Z47	X48	Y48	Z48	X49	Y49	Z49	X50	Y50	Z50	
1750	8.7500	522.354543	1255.175161	-127.299565	482.313250	1234.512955	-442.131373	486.359790	1289.991902	-282.996505	436.063850	1157.963976	-268.285229	515.644890	1034.385378	4.264634	704.209040	878.126235	-50.989911	454.162760	968.503358	-517.679407	683.160727	882.638465	-437.521068	0.277481	1119.763623	-197.612963	107.282613	1148.136225	-365.000897	153.791344	1109.064864	-63.991731	161.784572	1099.439158	-346.508188	197.488674	1064.722344	-96.077492	37.116050	1144.016594	-139.248008	15.322005	1166.065426	-242.642322	128.665503	957.374550	-39.478313	103.478465	1054.343225	-413.655635	203.715352	843.556104	-49.952971	266.494217	782.029514	-57.544727	284.493629	696.037945	-71.931395	294.973662	798.346959	-74.655245	318.098846	606.797973	-105.948629	301.231046	588.509918	-203.102796	268.396288	520.916919	-71.956382	261.835103	432.014300	-84.186758	213.322189	359.146539	-81.294417	286.547612	426.651960	-114.624234	175.607825	263.156477	-78.087700	178.471411	271.736919	-154.976447	92.927141	255.530062	-117.440971	330.705217	137.803893	-130.332010	252.166546	157.096483	-62.398568	236.863918	1015.450469	-410.090933	321.252040	1015.439899	-398.566730	329.503011	1044.854339	-375.896499	400.760992	972.629675	-404.421350	486.356488	915.084068	-390.879180	500.406344	894.406514	-288.999259	293.157290	601.150224	-412.200532	311.321703	602.752788	-341.108243	213.590239	588.178615	-373.738589	356.411456	486.326414	-431.928828	437.149698	832.514350	-413.719922	411.134789	749.832225	-411.586300	345.216004	689.497654	-412.276426	435.444404	734.983910	-383.557723	447.492506	469.127887	-363.054761	-65.025840	851.379325	-239.811063	21.153576	84.249755	-442.265388	21.120943	84.022231	-43.879102	
1751	8.7550	522.007249	1254.904174	-127.688083	482.650065	1234.360990	-442.069555	486.018929	1289.901766	-283.523680	436.273558	1157.639050	-269.114901	515.071237	1034.011625	3.547237	704.238247	877.964869	-51.040968	453.641100	968.657202	-518.532482	683.020390	883.028920	-438.188479	0.131536	1121.271710	-198.272189	107.329814	1149.528919	-365.284355	153.316435	1110.469886	-64.275534	161.466344	1100.324761	-346.796627	196.931169	1066.013747	-96.236354	36.856463	1145.463403	-139.850881	15.052489	1167.688983	-242.912821	127.825368	958.761853	-39.798439	103.644566	1056.517596	-413.910997	204.684481	845.275894	-50.624965	267.916638	784.090124	-57.796298	286.628720	698.273139	-72.620653	296.505507	800.635966	-74.344073	320.626214	608.828868	-106.448151	303.442853	591.046017	-203.735448	268.858795	524.033339	-72.729520	260.084156	435.335583	-84.582248	209.732154	363.768117	-81.576727	284.616448	429.354448	-115.099322	169.840173	269.023338	-77.985112	170.642204	276.543923	-154.935635	86.772119	263.475164	-117.460728	320.906719	138.906815	-130.191150	242.980473	160.507924	-62.411036	236.808062	1015.163244	-410.199871	321.217515	1014.308878	-398.697164	329.756521	1043.696193	-376.094751	400.380668	970.749926	-404.444167	486.422329	913.134210	-390.948719	499.548416	892.669591	-288.964239	298.265580	594.624512	-412.572685	316.180646	596.979991	-341.403086	218.785581	579.071906	-374.504731	365.155016	482.596058	-432.297806	437.439159	829.322809	-413.865785	413.026708	745.621942	-411.257523	348.440237	684.375477	-412.606376	437.706334	731.652078	-383.802499	456.723103	468.983370	-363.146115	-65.029808	851.391282	-239.785915	21.148659	84.269967	-442.278588	21.138329	84.042697	-43.880983	
1752	8.7600	521.556273	1254.631702	-127.805535	483.102404	1234.263887	-441.983769	485.770399	1290.088036	-283.976602	436.071948	1157.769595	-269.989060	514.490179	1033.552708	2.961098	704.156888	877.958363	-51.141800	453.118931	968.737438	-519.105184	683.235764	884.048037	-439.051834	0.011163	1122.686849	-198.956008	107.388456	1150.721345	-365.601184	152.637131	1111.774696	-64.723956	161.219902	1101.116314	-347.223002	196.370261	1067.166306	-96.417804	36.541669	1146.814134	-140.513501	14.922092	1169.115191	-243.726279	127.248983	959.969318	-40.468789	103.773713	1058.139943	-414.120411	205.923525	847.022879	-51.253184	269.765400	786.442122	-58.016816	289.277507	700.825474	-73.253324	298.301731	803.187841	-74.290323	323.567687	610.845749	-107.414064	305.933667	593.939919	-204.445230	269.671459	527.251491	-73.649805	258.651025	439.047937	-85.039383	206.378053	368.912130	-81.814907	282.885007	432.387503	-115.602090	164.158829	275.285778	-78.088510	165.415424	282.812029	-155.296105	80.848464	271.760330	-117.540531	311.363887	140.568548	-129.936510	234.050089	164.555478	-62.372423	236.844259	1013.877610	-410.475555	321.175810	1012.682958	-400.101706	330.112259	1041.590405	-376.578294	399.891423	967.801132	-404.753635	485.831211	910.077655	-390.207842	498.578831	890.045524	-288.787983	303.118577	587.259753	-412.971520	320.534428	590.590277	-341.488981	223.502703	568.999026	-375.151909	373.574262	478.110065	-432.606867	437.554760	824.854619	-414.253850	414.826559	740.801540	-411.775438	351.398380	678.335251	-412.972699	439.616330	727.213097	-384.034250	465.519986	468.365934	-363.288679	-65.021291	851.391795	-239.802680	21.161084	84.260921	-442.270169	21.166157	84.045388	-43.874925	
1753	8.7650	520.988194	1254.416191	-127.663417	483.556263	1234.277277	-441.888792	485.654834	1290.545113	-283.787481	435.516398	1158.340541	-270.371077	513.751711	1033.013471	2.376102	703.969646	877.953950	-51.262492	452.699829	968.990934	-519.938821	682.929931	884.107805	-439.073392	-0.052299	1123.861330	-199.777666	107.380606	1151.860880	-365.990144	152.089999	1113.158520	-65.100726	161.090357	1101.756192	-347.846912	195.986244	1068.385478	-96.223771	36.237799	1147.948033	-141.304334	14.734860	1170.275198	-244.075446	127.072733	961.191031	-40.874507	103.948588	1059.197878	-414.423265	207.369824	848.798039	-51.948175	271.912106	788.954661	-58.341240	292.283570	703.581318	-73.849199	300.318572	805.934543	-74.543624	326.879272	613.328811	-107.877085	308.583303	597.041078	-205.416093	270.980379	531.072321	-73.944751	257.513614	443.122406	-85.457046	203.340390	374.378882	-82.031851	281.351212	435.777754	-116.180657	158.700775	281.829449	-78.158324	160.688320	289.279170	-155.530724	75.297712	280.481362	-117.599721	302.059853	143.012382	-129.732009	225.394669	169.160185	-62.336738	236.821976	1011.831533	-411.006793	320.314416	1009.751563	-401.868415	330.517618	1038.538719	-377.554836	399.294852	963.750226	-405.316082	484.559916	904.319360	-391.242973	497.802372	883.593576	-290.406965	307.697532	578.966957	-413.425054	324.399382	583.015815	-341.825224	227.763713	557.700085	-375.428107	381.598428	472.979997	-433.014319	437.469646	819.299934	-414.785641	416.290333	734.601299	-412.161071	354.024508	671.165489	-413.460000	441.201705	721.780869	-384.304261	473.842828	467.213707	-363.557477	-65.020010	851.385762	-239.826195	21.160839	84.250658	-442.277929	21.189421	84.035032	-43.862078	
1754	8.7700	520.292200	1254.270611	-127.247657	484.045323	1234.540383	-441.868220	486.474684	1290.313259	-282.740968	434.509269	1158.825908	-269.297922	512.923325	1032.353036	1.911348	703.723509	877.933042	-51.390223	452.553606	969.553386	-520.662121	682.548210	884.049209	-438.962080	-0.147739	1124.851467	-200.663960	107.550063	1152.660022	-366.574819	151.434069	1114.264160	-65.695456	160.968822	1102.341645	-348.518215	195.405087	1069.440249	-96.578353	35.652469	1148.920634	-142.507788	14.641677	1171.331007	-244.850447	127.034167	962.426191	-41.299003	104.108848	1059.594077	-414.778858	209.112557	850.701929	-52.471971	274.248844	791.765200	-58.962191	295.715915	706.600517	-74.366528	302.393342	809.048432	-75.106092	330.590919	616.120497	-108.354478	311.674441	600.383144	-206.050080	272.548261	535.038279	-74.274163	256.587039	447.425488	-85.858185	200.594255	380.268113	-82.265931	280.155885	439.504746	-116.656529	153.489420	288.868701	-78.071365	155.844207	296.007761	-155.706443	70.099243	289.479413	-117.752284	293.002387	146.050382	-129.554330	217.060847	174.334997	-62.333761	236.772308	1008.959169	-411.842709	321.077473	1005.148574	-400.813066	330.938538	1034.723571	-378.771986	398.596140	958.639127	-405.827822	483.045629	898.432552	-391.760975	496.546752	878.519859	-290.681092	311.812741	569.898037	-413.626574	327.948767	574.619073	-341.831654	232.148521	546.050782	-376.106300	389.164005	467.225186	-433.416025	437.246414	812.539017	-415.370892	417.580273	727.391002	-412.483639	356.396694	662.978358	-413.935600	442.464551	715.256662	-384.489880	481.615512	465.613791	-363.894487	-65.021827	851.375189	-239.860674	21.166178	84.224066	-442.272618	21.216701	84.032409	-43.850745	
1755	8.7750	519.526668	1254.185345	-126.602258	484.665141	1235.266823	-441.980503	486.394946	1290.246923	-283.045591	434.528496	1158.708003	-269.795793	512.018883	1031.643309	1.458146	703.429041	877.942352	-51.431643	452.423796	970.047761	-521.227731	682.212952	884.392375	-439.370688	-0.228157	1125.757118	-201.612592	107.610701	1153.349616	-367.295675	150.746936	1115.227409	-66.315916	160.955768	1102.785406	-349.399775	194.859451	1070.339414	-97.029202	35.219278	1149.899263	-143.521707	14.508076	1172.177375	-245.105561	127.108611	963.647998	-41.717526	104.209755	1059.286856	-415.101614	210.868150	852.836256	-53.066131	276.795748	794.764090	-59.668531	299.407043	709.861857	-74.877281	304.729042	812.603431	-75.776515	334.364630	619.004381	-109.264476	314.913190	603.646550	-206.480756	274.260880	539.209659	-74.641828	255.912817	451.960612	-86.167846	198.135235	386.335340	-82.435721	279.116618	443.386866	-117.072759	148.589036	296.277530	-78.106410	151.268257	303.173913	-155.966248	65.210583	298.896367	-117.825718	284.141284	149.775854	-129.501500	209.002970	180.088251	-62.317774	236.663217	1005.406770	-412.642269	320.030662	1001.093245	-403.828698	331.314322	1030.166202	-380.284700	397.671032	952.664622	-406.509181	481.407718	891.583196	-392.233531	496.203705	871.895879	-290.717275	315.591147	560.071104	-413.807913	330.768841	565.937255	-340.790914	236.611373	533.364295	-376.454275	396.150324	461.010103	-434.157511	436.871581	804.708073	-416.021413	418.616175	719.238541	-412.986657	358.485081	653.829923	-414.383281	443.471856	707.831352	-384.693807	488.817905	463.257415	-364.213296	-65.033380	851.363125	-239.907163	21.156129	84.191961	-442.276491	21.212917	84.037545	-43.864335	
1756	8.7800	518.687518	1254.090870	-125.645322	485.456008	1235.382911	-441.195873	485.873936	1290.832152	-282.080874	434.658499	1158.961520	-269.694122	511.039696	1030.861818	1.066876	703.094545	877.941155	-51.392581	452.463559	970.725578	-521.722896	681.972967	884.576925	-439.379965	-0.246536	1126.331701	-202.623515	107.753718	1153.797964	-368.256922	150.044227	1116.059235	-67.139884	160.985395	1102.949757	-350.332795	193.944691	1070.975880	-98.099008	34.752681	1150.652513	-144.496841	13.821821	1172.807372	-246.231243	127.276674	964.812304	-42.110337	104.245654	1058.274825	-415.413752	212.817042	855.019555	-53.538185	279.411262	798.123793	-60.387517	303.316055	713.297566	-75.419713	307.002691	816.050412	-77.029132	338.301976	622.049389	-109.729792	318.352964	606.907374	-206.723740	276.144720	543.450240	-74.987519	255.645095	457.015125	-86.192033	195.884240	392.755573	-82.559125	277.500943	447.234316	-118.738517	144.000062	304.088030	-78.155717	146.838166	310.874541	-156.005872	60.658954	308.925106	-117.885887	275.628366	154.010538	-129.317270	201.338317	186.288249	-62.261371	236.410285	1001.218523	-413.546613	319.722945	995.700899	-404.844135	331.474961	1025.358166	-382.496832	396.992172	945.668183	-406.695761	479.279833	883.850263	-392.777190	494.888123	864.347546	-291.836521	319.080273	549.581032	-413.929913	333.800331	556.159297	-340.624461	240.370750	519.678540	-376.970737	402.936168	453.857006	-434.489607	436.330210	796.016127	-416.662137	419.480871	710.147846	-413.433905	360.416698	643.886749	-414.775253	444.313936	699.391702	-384.840636	495.524129	460.173587	-364.604497	-65.046389	851.341115	-239.980290	21.140391	84.177063	-442.275126	21.232681	84.021836	-43.864140	
